<?xml version="1.0" standalone="no"?>
<!DOCTYPE svg PUBLIC "-//W3C//DTD SVG 20010904//EN"
 "http://www.w3.org/TR/2001/REC-SVG-20010904/DTD/svg10.dtd">
<svg version="1.0" xmlns="http://www.w3.org/2000/svg"
 width="60.000000pt" height="60.000000pt" viewBox="0 0 60.000000 60.000000"
 preserveAspectRatio="xMidYMid meet">
<metadata>
Created by potrace 1.13, written by Peter Selinger 2001-2015
</metadata>
<g transform="translate(0.000000,60.000000) scale(0.100000,-0.100000)"
fill="#000000" stroke="none">
<path d="M215 532 c-60 -25 -90 -49 -120 -93 -110 -166 6 -383 205 -383 171 0
286 156 235 319 -42 131 -198 207 -320 157z m169 -26 c145 -61 184 -244 77
-359 -104 -113 -291 -84 -362 55 -26 50 -27 143 -4 189 58 114 178 161 289
115z"/>
<path d="M319 454 c-10 -12 -10 -20 -1 -35 11 -18 9 -19 -45 -20 l-58 -1 52
-16 c68 -21 80 -46 64 -135 -16 -91 -14 -97 15 -49 14 23 27 42 29 42 2 0 9
-18 15 -41 6 -23 13 -39 15 -38 2 2 6 36 10 76 l6 72 -28 4 -28 4 28 2 c32 1
32 0 10 46 -13 26 -23 35 -42 35 -23 1 -24 2 -8 11 22 13 22 36 -2 48 -14 8
-22 7 -32 -5z"/>
</g>
</svg>
